<svg width="95" height="32" viewBox="0 0 95 32" fill="none" xmlns="http://www.w3.org/2000/svg">
<g clip-path="url(#clip0_564_39)">
<path d="M34.6788 29.4678V7.43726H23.449L17.3703 21.7501L11.2916 7.43726H0V29.4678H6.13978L5.98888 13.0014H7.08338L14.7944 29.4678H19.9597L27.6714 13.0014H28.6884L28.5397 29.4678H34.6788Z" fill="white"/>
<path d="M45.202 29.4678H51.7646V29.3181V13.0459H60.828V7.43726H36.0994V13.0462H45.202V29.3185V29.4678Z" fill="white"/>
<path d="M92.8971 30.1456C88.8634 25.7228 83.7112 20.2672 79.8288 16.8161C77.7791 14.9867 75.4631 13.0747 72.9003 11.1561C70.8531 9.62652 68.6547 8.0969 66.2973 6.60989C66.2973 6.60989 69.7059 8.17593 73.4214 10.4875C75.5246 11.7949 77.718 13.3435 79.4575 14.9831L79.9244 14.3829L87.4845 4.67747H77.9489L73.949 9.81262C73.949 9.81262 53.7228 -6.80269 33.2803 3.20867C33.2803 3.20867 52.5389 -3.38982 71.6629 12.7437C73.8083 14.5548 75.9537 16.6486 78.0703 19.0741C78.3805 19.4281 78.6885 19.7883 78.9979 20.1579C78.9979 20.1579 78.5979 19.7938 77.9503 19.2282C76.3991 17.8642 73.4141 15.3032 71.0051 13.5922C69.5543 12.5648 68.4092 11.9388 67.7256 11.8845C67.7256 11.8845 64.5224 11.5549 68.971 16.2035C68.971 16.2035 71.1931 18.6902 72.432 20.9592C72.432 20.9592 69.583 17.2214 68.2816 17.0863L58.8343 29.3178H68.3445L73.053 23.2052L73.8854 22.1366C72.9327 20.3371 71.5582 17.8963 70.1557 15.957L70.1361 15.9289C69.9786 15.7148 69.8244 15.5054 69.6684 15.304C69.5775 15.1874 69.4914 15.0698 69.3943 14.9532L69.7241 15.2333C70.6331 16.016 73.337 18.3654 76.3904 21.2294C78.0085 22.7477 82.9789 27.8472 86.9424 32.0001H94.5785C94.0461 31.4101 93.4836 30.7888 92.8971 30.1456Z" fill="white"/>
</g>
<defs>
<clipPath id="clip0_564_39">
<rect width="94.5778" height="32" fill="white"/>
</clipPath>
</defs>
</svg>
